<?xml version="1.0" standalone="no"?>
<!DOCTYPE svg PUBLIC "-//W3C//DTD SVG 20010904//EN"
 "http://www.w3.org/TR/2001/REC-SVG-20010904/DTD/svg10.dtd">
<svg version="1.0" xmlns="http://www.w3.org/2000/svg"
 width="500.000000pt" height="258.000000pt" viewBox="0 0 500.000000 258.000000"
 preserveAspectRatio="xMidYMid meet">

<g transform="translate(0.000000,258.000000) scale(0.100000,-0.100000)"
fill="#000000" stroke="none">
<path d="M3155 1860 c-3 -5 -1 -10 4 -10 6 0 11 5 11 10 0 6 -2 10 -4 10 -3 0
-8 -4 -11 -10z"/>
<path d="M3081 1688 c-118 -278 -301 -709 -408 -961 -58 -136 -103 -250 -100
-254 9 -9 6 -15 72 142 62 150 278 662 419 994 48 112 86 210 84 218 -2 7 -32
-55 -67 -139z"/>
<path d="M3152 1769 c4 -12 1124 -469 1148 -469 21 0 -39 27 -295 132 -563
231 -856 346 -853 337z"/>
<path d="M4365 1270 c3 -5 15 -10 26 -10 11 0 17 5 14 10 -3 6 -15 10 -26 10
-11 0 -17 -4 -14 -10z"/>
<path d="M4426 1251 c-3 -5 6 -12 21 -15 15 -4 22 -11 17 -16 -5 -4 -301 -126
-659 -270 -357 -145 -652 -264 -654 -266 -31 -27 110 26 666 251 362 147 669
271 683 277 24 9 24 10 -19 29 -50 22 -48 22 -55 10z"/>
</g>
</svg>
